PathFileType	4	(X/Y/Z)	C:\Users\Graham\Documents\MATLAB\MOtoNMS_v2_2\MyData\ElaboratedData\S7\22-05-17\staticElaborations\Static1\Static\\Static1.trc
DataRate	CameraRate	NumFrames	NumMarkers	Units	OrigDataRate	DataStartFrame
100	100	5	38	mm	100	2
Frame#	Time	V_Sacral			R_ASIS			L_ASIS			R_Knee_Lat			R_Knee_Med			R_Thigh_Upper			R_Thigh_Front			R_Thigh_Rear			L_Knee_Lat			L_Knee_Med			L_Thigh_Upper			L_Thigh_Front			L_Thigh_Rear			R_Ankle_Lat			R_Ankle_Med			R_Shank_Upper			R_Shank_Front			R_Shank_Rear			L_Ankle_Lat			L_Ankle_Med			L_Shank_Upper			L_Shank_Front			L_Shank_Rear			R_Heel			R_MTP1			R_MTP5			L_Heel			L_MTP1			L_MTP5			Clavicle			R_Acromium			L_Acromium			LAJC			RAJC			LHJC			RHJC			LKJC			RKJC		
		X1	Y1	Z1	X2	Y2	Z2	X3	Y3	Z3	X4	Y4	Z4	X5	Y5	Z5	X6	Y6	Z6	X7	Y7	Z7	X8	Y8	Z8	X9	Y9	Z9	X10	Y10	Z10	X11	Y11	Z11	X12	Y12	Z12	X13	Y13	Z13	X14	Y14	Z14	X15	Y15	Z15	X16	Y16	Z16	X17	Y17	Z17	X18	Y18	Z18	X19	Y19	Z19	X20	Y20	Z20	X21	Y21	Z21	X22	Y22	Z22	X23	Y23	Z23	X24	Y24	Z24	X25	Y25	Z25	X26	Y26	Z26	X27	Y27	Z27	X28	Y28	Z28	X29	Y29	Z29	X30	Y30	Z30	X31	Y31	Z31	X32	Y32	Z32	X33	Y33	Z33	X34	Y34	Z34	X35	Y35	Z35	X36	Y36	Z36	X37	Y37	Z37	X38	Y38	Z38	

127	1.260000	-348.353309	1054.099028	26.282753	-151.437529	1016.309053	161.216849	-183.410304	1018.691461	-109.559639	-204.272797	515.720448	178.728912	-207.762078	513.318621	66.750710	-133.982119	803.071566	116.591324	-158.173849	688.424737	81.514396	-133.325752	687.647554	156.651527	-240.722755	516.557678	-125.704149	-234.227344	508.517790	-8.435391	-150.727745	807.315348	-64.937018	-169.455566	692.165711	-20.604479	-154.466479	684.056822	-91.193225	-310.557323	81.045178	166.983608	-262.086685	82.888062	89.941284	-180.436086	345.005247	150.156049	-220.702406	241.449248	106.282651	-233.235992	239.370057	181.504191	-297.176771	72.537858	-106.479547	-254.668227	89.337944	-29.603197	-204.643303	335.929664	-103.516677	-223.432053	223.347562	-58.984043	-239.948631	224.960997	-129.112402	-354.245971	33.184545	103.302759	-141.686540	60.884152	166.125635	-167.297175	53.733265	225.597206	-342.653804	34.405353	-45.446561	-120.697610	51.518869	-96.057175	-156.103138	42.767545	-161.327867	-139.810258	1404.870151	24.052891	-224.909266	1471.104522	219.398594	-243.580287	1480.944365	-168.348014	-275.922499	80.937901	-68.041372	-286.322004	81.966620	128.462446	-249.950719	938.262245	-63.083954	-227.136705	936.562289	130.127247	-237.475049	512.537734	-67.069770	-206.017437	514.519535	122.739811	
128	1.270000	-348.042000	1054.032857	25.123869	-151.305808	1016.413211	160.374608	-182.877694	1018.633749	-110.467939	-204.309746	515.794242	178.345230	-207.509413	513.252571	66.332719	-133.796968	803.046435	116.018776	-157.989938	688.347087	81.003374	-133.268815	687.676678	156.220244	-240.116844	516.438103	-126.289126	-233.705088	508.457313	-9.014154	-149.698017	807.360715	-65.736970	-168.787490	692.120472	-21.378067	-153.719124	684.059837	-91.936340	-310.618634	81.049478	166.986649	-262.056636	82.914821	89.979599	-180.459847	345.037044	150.061702	-220.678391	241.443167	106.230845	-233.366712	239.462454	181.423723	-297.148157	72.526197	-106.562885	-254.662181	89.366611	-29.667513	-204.257839	335.788113	-103.812922	-223.253252	223.281341	-59.168118	-239.642340	224.829938	-129.336220	-354.253646	33.188492	103.324088	-141.731231	60.991281	166.159863	-167.346517	53.741156	225.632578	-342.646501	34.429236	-45.475402	-120.681712	51.520359	-96.069425	-156.091671	42.749997	-161.338343	-139.917223	1404.860932	23.066850	-225.199619	1471.140346	218.282741	-243.132696	1480.927420	-169.487794	-275.905169	80.946404	-68.115199	-286.337635	81.982150	128.483124	-249.448586	938.191396	-64.045038	-226.920734	936.606950	129.212368	-236.910966	512.447708	-67.651640	-205.909580	514.523407	122.338975	
129	1.280000	-347.720643	1053.941950	24.006382	-151.161706	1016.508533	159.568115	-182.332929	1018.562365	-111.338684	-204.356982	515.855516	178.004178	-207.255722	513.176063	65.958415	-133.614033	803.004033	115.484409	-157.823379	688.242529	80.534478	-133.205870	687.690413	155.835555	-239.462401	516.306917	-126.843078	-233.146713	508.386322	-9.564365	-148.654414	807.390580	-66.513920	-168.073040	692.049206	-22.135508	-152.948372	684.040685	-92.669477	-310.648488	81.043143	166.989583	-261.990299	82.919689	90.034377	-180.480803	345.064872	150.015458	-220.625701	241.427794	106.214691	-233.480223	239.540763	181.378003	-297.118430	72.512186	-106.643861	-254.653599	89.389054	-29.730237	-203.843170	335.631941	-104.083247	-223.061090	223.198682	-59.333324	-239.322323	224.679980	-129.509118	-354.239959	33.217441	103.342955	-141.750709	60.967953	166.242536	-167.358630	53.633914	225.713093	-342.641661	34.446987	-45.507394	-120.667838	51.522843	-96.079648	-156.080213	42.733194	-161.347850	-139.991458	1404.843435	22.108577	-225.485530	1471.155671	217.191990	-242.693460	1480.884435	-170.604673	-275.886015	80.950620	-68.187049	-286.319393	81.981416	128.511980	-248.928146	938.102689	-64.967901	-226.686285	936.637201	128.334476	-236.304557	512.346620	-68.203721	-205.806352	514.515789	121.981297	
130	1.290000	-347.386218	1053.832420	22.924254	-151.005214	1016.595389	158.802175	-181.769116	1018.476870	-112.166685	-204.416190	515.905521	177.699347	-207.001456	513.089933	65.622348	-133.434399	802.946833	114.988417	-157.667270	688.116388	80.105176	-133.138673	687.689356	155.493657	-238.783476	516.166206	-127.357714	-232.589174	508.314211	-10.076413	-147.646396	807.397024	-67.244682	-167.351542	691.956826	-22.847387	-152.191159	683.989226	-93.362375	-310.646891	81.028099	166.989148	-261.890213	82.902799	90.101620	-180.500794	345.090852	150.009094	-220.545656	241.404282	106.227470	-233.577365	239.606776	181.360534	-297.088151	72.495326	-106.715584	-254.642943	89.402534	-29.784700	-203.417092	335.466121	-104.319152	-222.865095	223.103464	-59.472273	-238.999961	224.512451	-129.619564	-354.205386	33.271077	103.358393	-141.745684	60.818812	166.368366	-167.333142	53.417248	225.833406	-342.638543	34.456209	-45.536773	-120.654959	51.526192	-96.085032	-156.069174	42.719074	-161.352947	-140.022408	1404.823445	21.180500	-225.771821	1471.150479	216.126332	-242.265144	1480.814394	-171.700848	-275.865547	80.948930	-68.250142	-286.268552	81.965449	128.545384	-248.386621	937.998604	-65.848587	-226.435484	936.656101	127.497320	-235.686325	512.240208	-68.717064	-205.708823	514.497727	121.660847	
131	1.300000	-347.036207	1053.712309	21.872884	-150.836279	1016.674917	158.080943	-181.181442	1018.378173	-112.947583	-204.489821	515.946779	177.423009	-206.749532	512.996439	65.317711	-133.257696	802.878634	114.530926	-157.512678	687.977043	79.712416	-133.070383	687.675109	155.189271	-238.102211	516.019192	-127.827621	-232.062002	508.249576	-10.544137	-146.721964	807.374712	-67.910063	-166.657150	691.850595	-23.488888	-151.476285	683.901185	-93.988783	-310.616034	81.007174	166.982098	-261.761773	82.865879	90.175969	-180.523004	345.117910	150.031608	-220.442378	241.374940	106.260492	-233.660471	239.663447	181.362843	-297.057834	72.475793	-106.773333	-254.630763	89.405889	-29.826391	-202.995421	335.296272	-104.515807	-222.673439	223.000451	-59.580902	-238.684727	224.331821	-129.666683	-354.151808	33.347683	103.369542	-141.718408	60.556961	166.528672	-167.271832	53.104265	225.984918	-342.636802	34.455714	-45.559648	-120.642253	51.530160	-96.083776	-156.058808	42.708971	-161.351370	-140.006073	1404.806033	20.283771	-226.062304	1471.127301	215.085274	-241.849162	1480.718455	-172.778159	-275.844299	80.940841	-68.299862	-286.188903	81.936526	128.579033	-247.823320	937.883084	-66.683530	-226.171035	936.667754	126.704355	-235.082106	512.134384	-69.185879	-205.619677	514.471609	121.370360	
